<mxfile host="drawio-plugin" modified="2025-03-10T16:38:30.128Z" agent="5.0 (Windows NT 6.2; Win64; x64) AppleWebKit/537.36 (KHTML, like Gecko) Chrome/98.0.4758.102 Safari/537.36" etag="icpMJabGmSnnSdVwjDmC" version="20.5.3" type="embed"><diagram id="23iRSUPoRavnBvh4doch" name="roadmap"><mxGraphModel dx="1462" dy="784" grid="1" gridSize="10" guides="1" tooltips="1" connect="1" arrows="1" fold="1" page="1" pageScale="1" pageWidth="827" pageHeight="1169" math="0" shadow="0"><root><mxCell id="0"/><mxCell id="1" parent="0"/><mxCell id="3" value="25Q1" style="shape=step;perimeter=stepPerimeter;whiteSpace=wrap;html=1;fixedSize=1;" parent="1" vertex="1"><mxGeometry x="200" y="160" width="360" height="80" as="geometry"/></mxCell><mxCell id="4" value="25Q2" style="shape=step;perimeter=stepPerimeter;whiteSpace=wrap;html=1;fixedSize=1;" parent="1" vertex="1"><mxGeometry x="560" y="160" width="360" height="80" as="geometry"/></mxCell><mxCell id="5" value="25Q3" style="shape=step;perimeter=stepPerimeter;whiteSpace=wrap;html=1;fixedSize=1;" parent="1" vertex="1"><mxGeometry x="920" y="160" width="360" height="80" as="geometry"/></mxCell><mxCell id="6" value="25Q4" style="shape=step;perimeter=stepPerimeter;whiteSpace=wrap;html=1;fixedSize=1;" parent="1" vertex="1"><mxGeometry x="1280" y="160" width="360" height="80" as="geometry"/></mxCell><mxCell id="7" value="Техническая реализация Data Mesh" style="rounded=0;whiteSpace=wrap;html=1;" parent="1" vertex="1"><mxGeometry x="80" y="440" width="120" height="80" as="geometry"/></mxCell><mxCell id="11" value="2. Формирование команд доменов данных" style="rounded=0;whiteSpace=wrap;html=1;align=left;" parent="1" vertex="1"><mxGeometry x="680" y="280" width="120" height="40" as="geometry"/></mxCell><mxCell id="13" value="" style="rounded=0;whiteSpace=wrap;html=1;" parent="1" vertex="1"><mxGeometry x="200" y="120" width="120" height="20" as="geometry"/></mxCell><mxCell id="14" value="" style="rounded=0;whiteSpace=wrap;html=1;" parent="1" vertex="1"><mxGeometry x="320" y="120" width="120" height="20" as="geometry"/></mxCell><mxCell id="15" value="" style="rounded=0;whiteSpace=wrap;html=1;" parent="1" vertex="1"><mxGeometry x="440" y="120" width="120" height="20" as="geometry"/></mxCell><mxCell id="16" value="" style="rounded=0;whiteSpace=wrap;html=1;" parent="1" vertex="1"><mxGeometry x="560" y="120" width="120" height="20" as="geometry"/></mxCell><mxCell id="17" value="" style="rounded=0;whiteSpace=wrap;html=1;" parent="1" vertex="1"><mxGeometry x="680" y="120" width="120" height="20" as="geometry"/></mxCell><mxCell id="18" value="" style="rounded=0;whiteSpace=wrap;html=1;" parent="1" vertex="1"><mxGeometry x="800" y="120" width="120" height="20" as="geometry"/></mxCell><mxCell id="24" value="3. Разработка стандартов и политик" style="rounded=0;whiteSpace=wrap;html=1;align=left;" parent="1" vertex="1"><mxGeometry x="680" y="360" width="240" height="40" as="geometry"/></mxCell><mxCell id="25" value="" style="rounded=0;whiteSpace=wrap;html=1;" parent="1" vertex="1"><mxGeometry x="920" y="120" width="120" height="20" as="geometry"/></mxCell><mxCell id="26" value="" style="rounded=0;whiteSpace=wrap;html=1;" parent="1" vertex="1"><mxGeometry x="1040" y="120" width="120" height="20" as="geometry"/></mxCell><mxCell id="27" value="" style="rounded=0;whiteSpace=wrap;html=1;" parent="1" vertex="1"><mxGeometry x="1160" y="120" width="120" height="20" as="geometry"/></mxCell><mxCell id="28" value="" style="rounded=0;whiteSpace=wrap;html=1;" parent="1" vertex="1"><mxGeometry x="1280" y="120" width="120" height="20" as="geometry"/></mxCell><mxCell id="29" value="" style="rounded=0;whiteSpace=wrap;html=1;" parent="1" vertex="1"><mxGeometry x="1400" y="120" width="120" height="20" as="geometry"/></mxCell><mxCell id="30" value="" style="rounded=0;whiteSpace=wrap;html=1;" parent="1" vertex="1"><mxGeometry x="1520" y="120" width="120" height="20" as="geometry"/></mxCell><mxCell id="32" value="MVP" style="text;html=1;strokeColor=#b85450;fillColor=#f8cecc;align=center;verticalAlign=middle;whiteSpace=wrap;rounded=0;fontSize=12;" parent="1" vertex="1"><mxGeometry x="1850" y="60" width="60" height="30" as="geometry"/></mxCell><mxCell id="33" value="Организационные мероприятия" style="rounded=0;whiteSpace=wrap;html=1;" parent="1" vertex="1"><mxGeometry x="80" y="280" width="120" height="120" as="geometry"/></mxCell><mxCell id="34" value="26Q1" style="shape=step;perimeter=stepPerimeter;whiteSpace=wrap;html=1;fixedSize=1;" parent="1" vertex="1"><mxGeometry x="1640" y="160" width="360" height="80" as="geometry"/></mxCell><mxCell id="35" value="" style="rounded=0;whiteSpace=wrap;html=1;" parent="1" vertex="1"><mxGeometry x="1640" y="120" width="120" height="20" as="geometry"/></mxCell><mxCell id="36" value="" style="rounded=0;whiteSpace=wrap;html=1;" parent="1" vertex="1"><mxGeometry x="1760" y="120" width="120" height="20" as="geometry"/></mxCell><mxCell id="37" value="" style="rounded=0;whiteSpace=wrap;html=1;" parent="1" vertex="1"><mxGeometry x="1880" y="120" width="120" height="20" as="geometry"/></mxCell><mxCell id="31" value="" style="endArrow=none;html=1;rounded=0;fontSize=12;strokeWidth=3;strokeColor=#b85450;fillColor=#f8cecc;" parent="1" edge="1"><mxGeometry width="50" height="50" relative="1" as="geometry"><mxPoint x="1880" y="732" as="sourcePoint"/><mxPoint x="1880" y="90" as="targetPoint"/></mxGeometry></mxCell><mxCell id="39" value="5. Настройка хранения аналитических данных в Data Lakehouse" style="rounded=0;whiteSpace=wrap;html=1;align=left;" parent="1" vertex="1"><mxGeometry x="920" y="400" width="360" height="40" as="geometry"/></mxCell><mxCell id="40" value="9. Настройка CI/CD, мониторинг, логирование" style="rounded=0;whiteSpace=wrap;html=1;" parent="1" vertex="1"><mxGeometry x="1280" y="480" width="360" height="40" as="geometry"/></mxCell><mxCell id="41" value="1. Формирование архитектурного решения" style="rounded=0;whiteSpace=wrap;html=1;align=left;" parent="1" vertex="1"><mxGeometry x="440" y="280" width="240" height="40" as="geometry"/></mxCell><mxCell id="42" value="4. Уточнение границ доменов данных" style="rounded=0;whiteSpace=wrap;html=1;align=left;" parent="1" vertex="1"><mxGeometry x="800" y="320" width="120" height="40" as="geometry"/></mxCell><mxCell id="45" value="6. Ввод в эксплуатацию Data Lakehouse" style="rounded=0;whiteSpace=wrap;html=1;align=left;" parent="1" vertex="1"><mxGeometry x="1280" y="400" width="120" height="40" as="geometry"/></mxCell><mxCell id="46" value="Расширение DWH до Data Lakehouse" style="rounded=0;whiteSpace=wrap;html=1;" parent="1" vertex="1"><mxGeometry x="80" y="400" width="120" height="40" as="geometry"/></mxCell><mxCell id="48" value="7.&amp;nbsp;&lt;span style=&quot;text-align: center;&quot;&gt;Настройка витрин под каждый домен в DataHub&lt;/span&gt;" style="rounded=0;whiteSpace=wrap;html=1;align=left;" parent="1" vertex="1"><mxGeometry x="1280" y="440" width="240" height="40" as="geometry"/></mxCell><mxCell id="49" value="8. Ввод в эксплуатацию DataHub" style="rounded=0;whiteSpace=wrap;html=1;" parent="1" vertex="1"><mxGeometry x="1520" y="440" width="120" height="40" as="geometry"/></mxCell><mxCell id="50" value="10. Вывод из эксплуатации устаревших систем" style="rounded=0;whiteSpace=wrap;html=1;" vertex="1" parent="1"><mxGeometry x="1640" y="440" width="240" height="40" as="geometry"/></mxCell></root></mxGraphModel></diagram></mxfile>